<svg width="150" height="150" viewBox="0 0 150 150" fill="none" xmlns="http://www.w3.org/2000/svg">
<path d="M25.2727 124V30.9091H57.8182C64.303 30.9091 69.6515 32.0303 73.8636 34.2727C78.0758 36.4848 81.2121 39.4697 83.2727 43.2273C85.3333 46.9545 86.3636 51.0909 86.3636 55.6364C86.3636 59.6364 85.6515 62.9394 84.2273 65.5455C82.8333 68.1515 80.9849 70.2121 78.6818 71.7273C76.4091 73.2424 73.9394 74.3636 71.2727 75.0909V76C74.1212 76.1818 76.9849 77.1818 79.8636 79C82.7424 80.8182 85.1515 83.4242 87.0909 86.8182C89.0303 90.2121 90 94.3636 90 99.2727C90 103.939 88.9394 108.136 86.8182 111.864C84.697 115.591 81.3485 118.545 76.7727 120.727C72.197 122.909 66.2424 124 58.9091 124H25.2727ZM36.5455 114H58.9091C66.2727 114 71.5 112.576 74.5909 109.727C77.7121 106.848 79.2727 103.364 79.2727 99.2727C79.2727 96.1212 78.4697 93.2121 76.8636 90.5455C75.2576 87.8485 72.9697 85.697 70 84.0909C67.0303 82.4545 63.5152 81.6364 59.4545 81.6364H36.5455V114ZM36.5455 71.8182H57.4545C60.8485 71.8182 63.9091 71.1515 66.6364 69.8182C69.3939 68.4848 71.5758 66.6061 73.1818 64.1818C74.8182 61.7576 75.6364 58.9091 75.6364 55.6364C75.6364 51.5455 74.2121 48.0758 71.3636 45.2273C68.5152 42.3485 64 40.9091 57.8182 40.9091H36.5455V71.8182Z" fill="black"/>
<line x1="43.5" y1="41" x2="43.5" y2="114" stroke="black"/>
<line x1="38.5" y1="41" x2="38.5" y2="114" stroke="black"/>
<line x1="48.5" y1="41" x2="48.5" y2="114" stroke="black"/>
<line x1="53.5" y1="41" x2="53.5" y2="114" stroke="black"/>
<line x1="58.5" y1="41" x2="58.5" y2="114" stroke="black"/>
<line x1="63.5" y1="41" x2="63.5" y2="114" stroke="black"/>
<line x1="68.5" y1="41" x2="68.5" y2="114" stroke="black"/>
<line x1="73.5" y1="41" x2="73.5" y2="114" stroke="black"/>
<line x1="78.5" y1="79" x2="78.5" y2="114" stroke="black"/>
<line x1="35" y1="43.5" x2="82" y2="43.5" stroke="black"/>
<line x1="34" y1="47.5" x2="78" y2="47.5" stroke="black"/>
<line x1="34" y1="51.5" x2="80" y2="51.5" stroke="black"/>
<line x1="34" y1="55.5" x2="79" y2="55.5" stroke="black"/>
<line x1="34" y1="59.5" x2="80" y2="59.5" stroke="black"/>
<line x1="34" y1="63.5" x2="80" y2="63.5" stroke="black"/>
<line x1="34" y1="67.5" x2="78" y2="67.5" stroke="black"/>
<line x1="34" y1="71.5" x2="76" y2="71.5" stroke="black"/>
<line x1="35" y1="85.5" x2="81" y2="85.5" stroke="black"/>
<line x1="35" y1="89.5" x2="80" y2="89.5" stroke="black"/>
<line x1="35" y1="93.5" x2="83" y2="93.5" stroke="black"/>
<line x1="35" y1="97.5" x2="84" y2="97.5" stroke="black"/>
<line x1="35" y1="101.5" x2="83" y2="101.5" stroke="black"/>
<line x1="35" y1="105.5" x2="83" y2="105.5" stroke="black"/>
<line x1="35" y1="109.5" x2="82" y2="109.5" stroke="black"/>
<g filter="url(#filter0_d_5_66)">
<path d="M113.182 54.1818C112.636 49.5758 110.424 46 106.545 43.4545C102.667 40.9091 97.9091 39.6364 92.2727 39.6364C88.1515 39.6364 84.5455 40.303 81.4545 41.6364C78.3939 42.9697 76 44.803 74.2727 47.1364C72.5758 49.4697 71.7273 52.1212 71.7273 55.0909C71.7273 57.5758 72.3182 59.7121 73.5 61.5C74.7121 63.2576 76.2576 64.7273 78.1364 65.9091C80.0152 67.0606 81.9848 68.0151 84.0455 68.7727C86.1061 69.5 88 70.0909 89.7273 70.5455L99.1818 73.0909C101.606 73.7273 104.303 74.6061 107.273 75.7273C110.273 76.8485 113.136 78.3788 115.864 80.3182C118.621 82.2273 120.894 84.6818 122.682 87.6818C124.47 90.6818 125.364 94.3636 125.364 98.7273C125.364 103.758 124.045 108.303 121.409 112.364C118.803 116.424 114.985 119.652 109.955 122.045C104.955 124.439 98.8788 125.636 91.7273 125.636C85.0606 125.636 79.2879 124.561 74.4091 122.409C69.5606 120.258 65.7424 117.258 62.9545 113.409C60.197 109.561 58.6364 105.091 58.2727 100H69.9091C70.2121 103.515 71.3939 106.424 73.4545 108.727C75.5455 111 78.1818 112.697 81.3636 113.818C84.5758 114.909 88.0303 115.455 91.7273 115.455C96.0303 115.455 99.8939 114.758 103.318 113.364C106.742 111.939 109.455 109.97 111.455 107.455C113.455 104.909 114.455 101.939 114.455 98.5455C114.455 95.4545 113.591 92.9394 111.864 91C110.136 89.0606 107.864 87.4848 105.045 86.2727C102.227 85.0606 99.1818 84 95.9091 83.0909L84.4545 79.8182C77.1818 77.7273 71.4242 74.7424 67.1818 70.8636C62.9394 66.9848 60.8182 61.9091 60.8182 55.6364C60.8182 50.4242 62.2273 45.8788 65.0455 42C67.8939 38.0909 71.7121 35.0606 76.5 32.9091C81.3182 30.7273 86.697 29.6364 92.6364 29.6364C98.6364 29.6364 103.97 30.7121 108.636 32.8636C113.303 34.9848 117 37.8939 119.727 41.5909C122.485 45.2879 123.939 49.4848 124.091 54.1818H113.182Z" fill="white"/>
</g>
<defs>
<filter id="filter0_d_5_66" x="54.2727" y="29.6364" width="75.0909" height="104" filterUnits="userSpaceOnUse" color-interpolation-filters="sRGB">
<feFlood flood-opacity="0" result="BackgroundImageFix"/>
<feColorMatrix in="SourceAlpha" type="matrix" values="0 0 0 0 0 0 0 0 0 0 0 0 0 0 0 0 0 0 127 0" result="hardAlpha"/>
<feOffset dy="4"/>
<feGaussianBlur stdDeviation="2"/>
<feComposite in2="hardAlpha" operator="out"/>
<feColorMatrix type="matrix" values="0 0 0 0 0 0 0 0 0 0 0 0 0 0 0 0 0 0 0.25 0"/>
<feBlend mode="normal" in2="BackgroundImageFix" result="effect1_dropShadow_5_66"/>
<feBlend mode="normal" in="SourceGraphic" in2="effect1_dropShadow_5_66" result="shape"/>
</filter>
</defs>
</svg>
