<svg width="150" height="157" viewBox="0 0 150 157" fill="none" xmlns="http://www.w3.org/2000/svg">
<rect y="3" width="150" height="150" rx="12" fill="#639A00"/>
<path d="M23.25 143C16.125 136.092 10.4688 127.959 6.28125 118.601C2.09375 109.244 0 99.1643 0 88.3623C0 77.9372 1.96875 68.1401 5.90625 58.971C9.84375 49.8019 15.1875 41.8261 21.9375 35.0435C28.6875 28.2609 36.625 22.8913 45.75 18.9348C54.875 14.9783 64.625 13 75 13C85.375 13 95.125 14.9783 104.25 18.9348C113.375 22.8913 121.313 28.2609 128.063 35.0435C134.813 41.8261 140.156 49.8019 144.094 58.971C148.031 68.1401 150 77.9372 150 88.3623C150 99.1643 147.906 109.244 143.719 118.601C139.531 127.959 133.875 136.092 126.75 143L118.688 134.899C124.938 128.995 129.844 122.087 133.406 114.174C136.969 106.261 138.75 97.657 138.75 88.3623C138.75 70.5266 132.562 55.3913 120.187 42.9565C107.812 30.5217 92.75 24.3043 75 24.3043C57.25 24.3043 42.1875 30.5217 29.8125 42.9565C17.4375 55.3913 11.25 70.5266 11.25 88.3623C11.25 97.657 13.0313 106.261 16.5938 114.174C20.1563 122.087 25.0625 128.995 31.3125 134.899L23.25 143ZM44.4375 121.71C40.0625 117.565 36.5625 112.635 33.9375 106.92C31.3125 101.205 30 95.0193 30 88.3623C30 75.8019 34.375 65.1256 43.125 56.3333C51.875 47.5411 62.5 43.1449 75 43.1449C87.5 43.1449 98.125 47.5411 106.875 56.3333C115.625 65.1256 120 75.8019 120 88.3623C120 95.0193 118.688 101.205 116.063 106.92C113.438 112.635 109.938 117.565 105.563 121.71L97.5 113.609C101 110.469 103.75 106.763 105.75 102.493C107.75 98.2222 108.75 93.5121 108.75 88.3623C108.75 78.942 105.469 70.9348 98.9062 64.3406C92.3438 57.7464 84.375 54.4493 75 54.4493C65.625 54.4493 57.6562 57.7464 51.0938 64.3406C44.5312 70.9348 41.25 78.942 41.25 88.3623C41.25 93.5121 42.25 98.2222 44.25 102.493C46.25 106.763 49 110.469 52.5 113.609L44.4375 121.71ZM75 103.435C70.875 103.435 67.3437 101.959 64.4062 99.0073C61.4687 96.0556 60 92.5072 60 88.3623C60 84.2174 61.4687 80.6691 64.4062 77.7174C67.3437 74.7657 70.875 73.2899 75 73.2899C79.125 73.2899 82.6563 74.7657 85.5938 77.7174C88.5313 80.6691 90 84.2174 90 88.3623C90 92.5072 88.5313 96.0556 85.5938 99.0073C82.6563 101.959 79.125 103.435 75 103.435Z" fill="#0C2E00"/>
<path d="M27.2727 127V33.9091H59.8182C66.303 33.9091 71.6515 35.0303 75.8636 37.2727C80.0758 39.4848 83.2121 42.4697 85.2727 46.2273C87.3333 49.9545 88.3636 54.0909 88.3636 58.6364C88.3636 62.6364 87.6515 65.9394 86.2273 68.5455C84.8333 71.1515 82.9849 73.2121 80.6818 74.7273C78.4091 76.2424 75.9394 77.3636 73.2727 78.0909V79C76.1212 79.1818 78.9849 80.1818 81.8636 82C84.7424 83.8182 87.1515 86.4242 89.0909 89.8182C91.0303 93.2121 92 97.3636 92 102.273C92 106.939 90.9394 111.136 88.8182 114.864C86.697 118.591 83.3485 121.545 78.7727 123.727C74.197 125.909 68.2424 127 60.9091 127H27.2727ZM38.5455 117H60.9091C68.2727 117 73.5 115.576 76.5909 112.727C79.7121 109.848 81.2727 106.364 81.2727 102.273C81.2727 99.1212 80.4697 96.2121 78.8636 93.5455C77.2576 90.8485 74.9697 88.697 72 87.0909C69.0303 85.4545 65.5152 84.6364 61.4545 84.6364H38.5455V117ZM38.5455 74.8182H59.4545C62.8485 74.8182 65.9091 74.1515 68.6364 72.8182C71.3939 71.4848 73.5758 69.6061 75.1818 67.1818C76.8182 64.7576 77.6364 61.9091 77.6364 58.6364C77.6364 54.5455 76.2121 51.0758 73.3636 48.2273C70.5152 45.3485 66 43.9091 59.8182 43.9091H38.5455V74.8182Z" fill="black"/>
<line x1="45.5" y1="44" x2="45.5" y2="117" stroke="black"/>
<line x1="40.5" y1="44" x2="40.5" y2="117" stroke="black"/>
<line x1="50.5" y1="44" x2="50.5" y2="117" stroke="black"/>
<line x1="55.5" y1="44" x2="55.5" y2="117" stroke="black"/>
<line x1="60.5" y1="44" x2="60.5" y2="117" stroke="black"/>
<line x1="65.5" y1="44" x2="65.5" y2="117" stroke="black"/>
<line x1="70.5" y1="44" x2="70.5" y2="117" stroke="black"/>
<line x1="75.5" y1="44" x2="75.5" y2="117" stroke="black"/>
<line x1="80.5" y1="82" x2="80.5" y2="117" stroke="black"/>
<line x1="37" y1="46.5" x2="84" y2="46.5" stroke="black"/>
<line x1="36" y1="50.5" x2="80" y2="50.5" stroke="black"/>
<line x1="36" y1="54.5" x2="82" y2="54.5" stroke="black"/>
<line x1="36" y1="58.5" x2="81" y2="58.5" stroke="black"/>
<line x1="36" y1="62.5" x2="82" y2="62.5" stroke="black"/>
<line x1="36" y1="66.5" x2="82" y2="66.5" stroke="black"/>
<line x1="36" y1="70.5" x2="80" y2="70.5" stroke="black"/>
<line x1="36" y1="74.5" x2="78" y2="74.5" stroke="black"/>
<line x1="37" y1="88.5" x2="83" y2="88.5" stroke="black"/>
<line x1="37" y1="92.5" x2="82" y2="92.5" stroke="black"/>
<line x1="37" y1="96.5" x2="85" y2="96.5" stroke="black"/>
<line x1="37" y1="100.5" x2="86" y2="100.5" stroke="black"/>
<line x1="37" y1="104.5" x2="85" y2="104.5" stroke="black"/>
<line x1="37" y1="108.5" x2="85" y2="108.5" stroke="black"/>
<line x1="37" y1="112.5" x2="84" y2="112.5" stroke="black"/>
<g filter="url(#filter0_d_3_61)">
<path d="M115.182 57.1818C114.636 52.5758 112.424 49 108.545 46.4545C104.667 43.9091 99.9091 42.6364 94.2727 42.6364C90.1515 42.6364 86.5455 43.303 83.4545 44.6364C80.3939 45.9697 78 47.803 76.2727 50.1364C74.5758 52.4697 73.7273 55.1212 73.7273 58.0909C73.7273 60.5758 74.3182 62.7121 75.5 64.5C76.7121 66.2576 78.2576 67.7273 80.1364 68.9091C82.0152 70.0606 83.9848 71.0151 86.0455 71.7727C88.1061 72.5 90 73.0909 91.7273 73.5455L101.182 76.0909C103.606 76.7273 106.303 77.6061 109.273 78.7273C112.273 79.8485 115.136 81.3788 117.864 83.3182C120.621 85.2273 122.894 87.6818 124.682 90.6818C126.47 93.6818 127.364 97.3636 127.364 101.727C127.364 106.758 126.045 111.303 123.409 115.364C120.803 119.424 116.985 122.652 111.955 125.045C106.955 127.439 100.879 128.636 93.7273 128.636C87.0606 128.636 81.2879 127.561 76.4091 125.409C71.5606 123.258 67.7424 120.258 64.9545 116.409C62.197 112.561 60.6364 108.091 60.2727 103H71.9091C72.2121 106.515 73.3939 109.424 75.4545 111.727C77.5455 114 80.1818 115.697 83.3636 116.818C86.5758 117.909 90.0303 118.455 93.7273 118.455C98.0303 118.455 101.894 117.758 105.318 116.364C108.742 114.939 111.455 112.97 113.455 110.455C115.455 107.909 116.455 104.939 116.455 101.545C116.455 98.4545 115.591 95.9394 113.864 94C112.136 92.0606 109.864 90.4848 107.045 89.2727C104.227 88.0606 101.182 87 97.9091 86.0909L86.4545 82.8182C79.1818 80.7273 73.4242 77.7424 69.1818 73.8636C64.9394 69.9848 62.8182 64.9091 62.8182 58.6364C62.8182 53.4242 64.2273 48.8788 67.0455 45C69.8939 41.0909 73.7121 38.0606 78.5 35.9091C83.3182 33.7273 88.697 32.6364 94.6364 32.6364C100.636 32.6364 105.97 33.7121 110.636 35.8636C115.303 37.9848 119 40.8939 121.727 44.5909C124.485 48.2879 125.939 52.4848 126.091 57.1818H115.182Z" fill="white"/>
</g>
<defs>
<filter id="filter0_d_3_61" x="56.2727" y="32.6364" width="75.0909" height="104" filterUnits="userSpaceOnUse" color-interpolation-filters="sRGB">
<feFlood flood-opacity="0" result="BackgroundImageFix"/>
<feColorMatrix in="SourceAlpha" type="matrix" values="0 0 0 0 0 0 0 0 0 0 0 0 0 0 0 0 0 0 127 0" result="hardAlpha"/>
<feOffset dy="4"/>
<feGaussianBlur stdDeviation="2"/>
<feComposite in2="hardAlpha" operator="out"/>
<feColorMatrix type="matrix" values="0 0 0 0 0 0 0 0 0 0 0 0 0 0 0 0 0 0 0.25 0"/>
<feBlend mode="normal" in2="BackgroundImageFix" result="effect1_dropShadow_3_61"/>
<feBlend mode="normal" in="SourceGraphic" in2="effect1_dropShadow_3_61" result="shape"/>
</filter>
</defs>
</svg>
