<svg width="150" height="150" viewBox="0 0 150 150" fill="none" xmlns="http://www.w3.org/2000/svg">
<g clip-path="url(#clip0_6_50)">
<circle cx="75" cy="75" r="75" fill="#639A00"/>
<path d="M29.995 122C23.8675 116.048 19.0031 109.042 15.4019 100.98C11.8006 92.9179 10 84.2338 10 74.9275C10 65.9459 11.6931 57.5053 15.0794 49.6058C18.4656 41.7063 23.0613 34.8348 28.8663 28.9913C34.6713 23.1478 41.4975 18.5217 49.345 15.113C57.1925 11.7043 65.5775 10 74.5 10C83.4225 10 91.8075 11.7043 99.655 15.113C107.502 18.5217 114.329 23.1478 120.134 28.9913C125.939 34.8348 130.534 41.7063 133.921 49.6058C137.307 57.5053 139 65.9459 139 74.9275C139 84.2338 137.199 92.9179 133.598 100.98C129.997 109.042 125.132 116.048 119.005 122L112.071 115.02C117.446 109.934 121.666 103.983 124.729 97.1652C127.793 90.3478 129.325 82.9353 129.325 74.9275C129.325 59.5614 124.004 46.5217 113.361 35.8087C102.719 25.0957 89.765 19.7391 74.5 19.7391C59.235 19.7391 46.2812 25.0957 35.6387 35.8087C24.9962 46.5217 19.675 59.5614 19.675 74.9275C19.675 82.9353 21.2069 90.3478 24.2706 97.1652C27.3344 103.983 31.5538 109.934 36.9288 115.02L29.995 122ZM48.2163 103.658C44.4538 100.087 41.4437 95.8396 39.1862 90.9159C36.9287 85.9923 35.8 80.6628 35.8 74.9275C35.8 64.1063 39.5625 54.9082 47.0875 47.3333C54.6125 39.7585 63.75 35.971 74.5 35.971C85.25 35.971 94.3875 39.7585 101.912 47.3333C109.437 54.9082 113.2 64.1063 113.2 74.9275C113.2 80.6628 112.071 85.9923 109.814 90.9159C107.556 95.8396 104.546 100.087 100.784 103.658L93.85 96.6783C96.86 93.9729 99.225 90.7807 100.945 87.1014C102.665 83.4222 103.525 79.3642 103.525 74.9275C103.525 66.8116 100.703 59.913 95.0594 54.2319C89.4156 48.5507 82.5625 45.7101 74.5 45.7101C66.4375 45.7101 59.5844 48.5507 53.9406 54.2319C48.2969 59.913 45.475 66.8116 45.475 74.9275C45.475 79.3642 46.335 83.4222 48.055 87.1014C49.775 90.7807 52.14 93.9729 55.15 96.6783L48.2163 103.658ZM74.5 87.913C70.9525 87.913 67.9156 86.6415 65.3894 84.0986C62.8631 81.5556 61.6 78.4985 61.6 74.9275C61.6 71.3565 62.8631 68.2995 65.3894 65.7565C67.9156 63.2135 70.9525 61.942 74.5 61.942C78.0475 61.942 81.0844 63.2135 83.6106 65.7565C86.1369 68.2995 87.4 71.3565 87.4 74.9275C87.4 78.4985 86.1369 81.5556 83.6106 84.0986C81.0844 86.6415 78.0475 87.913 74.5 87.913Z" fill="#0C2E00"/>
<path d="M25.2727 124V30.9091H57.8182C64.303 30.9091 69.6515 32.0303 73.8636 34.2727C78.0758 36.4848 81.2121 39.4697 83.2727 43.2273C85.3333 46.9545 86.3636 51.0909 86.3636 55.6364C86.3636 59.6364 85.6515 62.9394 84.2273 65.5455C82.8333 68.1515 80.9849 70.2121 78.6818 71.7273C76.4091 73.2424 73.9394 74.3636 71.2727 75.0909V76C74.1212 76.1818 76.9849 77.1818 79.8636 79C82.7424 80.8182 85.1515 83.4242 87.0909 86.8182C89.0303 90.2121 90 94.3636 90 99.2727C90 103.939 88.9394 108.136 86.8182 111.864C84.697 115.591 81.3485 118.545 76.7727 120.727C72.197 122.909 66.2424 124 58.9091 124H25.2727ZM36.5455 114H58.9091C66.2727 114 71.5 112.576 74.5909 109.727C77.7121 106.848 79.2727 103.364 79.2727 99.2727C79.2727 96.1212 78.4697 93.2121 76.8636 90.5455C75.2576 87.8485 72.9697 85.697 70 84.0909C67.0303 82.4545 63.5152 81.6364 59.4545 81.6364H36.5455V114ZM36.5455 71.8182H57.4545C60.8485 71.8182 63.9091 71.1515 66.6364 69.8182C69.3939 68.4848 71.5758 66.6061 73.1818 64.1818C74.8182 61.7576 75.6364 58.9091 75.6364 55.6364C75.6364 51.5455 74.2121 48.0758 71.3636 45.2273C68.5152 42.3485 64 40.9091 57.8182 40.9091H36.5455V71.8182Z" fill="black"/>
<line x1="43.5" y1="41" x2="43.5" y2="114" stroke="black"/>
<line x1="38.5" y1="41" x2="38.5" y2="114" stroke="black"/>
<line x1="48.5" y1="41" x2="48.5" y2="114" stroke="black"/>
<line x1="53.5" y1="41" x2="53.5" y2="114" stroke="black"/>
<line x1="58.5" y1="41" x2="58.5" y2="114" stroke="black"/>
<line x1="63.5" y1="41" x2="63.5" y2="114" stroke="black"/>
<line x1="68.5" y1="41" x2="68.5" y2="114" stroke="black"/>
<line x1="73.5" y1="41" x2="73.5" y2="114" stroke="black"/>
<line x1="78.5" y1="79" x2="78.5" y2="114" stroke="black"/>
<line x1="35" y1="43.5" x2="82" y2="43.5" stroke="black"/>
<line x1="34" y1="47.5" x2="78" y2="47.5" stroke="black"/>
<line x1="34" y1="51.5" x2="80" y2="51.5" stroke="black"/>
<line x1="34" y1="55.5" x2="79" y2="55.5" stroke="black"/>
<line x1="34" y1="59.5" x2="80" y2="59.5" stroke="black"/>
<line x1="34" y1="63.5" x2="80" y2="63.5" stroke="black"/>
<line x1="34" y1="67.5" x2="78" y2="67.5" stroke="black"/>
<line x1="34" y1="71.5" x2="76" y2="71.5" stroke="black"/>
<line x1="35" y1="85.5" x2="81" y2="85.5" stroke="black"/>
<line x1="35" y1="89.5" x2="80" y2="89.5" stroke="black"/>
<line x1="35" y1="93.5" x2="83" y2="93.5" stroke="black"/>
<line x1="35" y1="97.5" x2="84" y2="97.5" stroke="black"/>
<line x1="35" y1="101.5" x2="83" y2="101.5" stroke="black"/>
<line x1="35" y1="105.5" x2="83" y2="105.5" stroke="black"/>
<line x1="35" y1="109.5" x2="82" y2="109.5" stroke="black"/>
<g filter="url(#filter0_d_6_50)">
<path d="M113.182 54.1818C112.636 49.5758 110.424 46 106.545 43.4545C102.667 40.9091 97.9091 39.6364 92.2727 39.6364C88.1515 39.6364 84.5455 40.303 81.4545 41.6364C78.3939 42.9697 76 44.803 74.2727 47.1364C72.5758 49.4697 71.7273 52.1212 71.7273 55.0909C71.7273 57.5758 72.3182 59.7121 73.5 61.5C74.7121 63.2576 76.2576 64.7273 78.1364 65.9091C80.0152 67.0606 81.9848 68.0151 84.0455 68.7727C86.1061 69.5 88 70.0909 89.7273 70.5455L99.1818 73.0909C101.606 73.7273 104.303 74.6061 107.273 75.7273C110.273 76.8485 113.136 78.3788 115.864 80.3182C118.621 82.2273 120.894 84.6818 122.682 87.6818C124.47 90.6818 125.364 94.3636 125.364 98.7273C125.364 103.758 124.045 108.303 121.409 112.364C118.803 116.424 114.985 119.652 109.955 122.045C104.955 124.439 98.8788 125.636 91.7273 125.636C85.0606 125.636 79.2879 124.561 74.4091 122.409C69.5606 120.258 65.7424 117.258 62.9545 113.409C60.197 109.561 58.6364 105.091 58.2727 100H69.9091C70.2121 103.515 71.3939 106.424 73.4545 108.727C75.5455 111 78.1818 112.697 81.3636 113.818C84.5758 114.909 88.0303 115.455 91.7273 115.455C96.0303 115.455 99.8939 114.758 103.318 113.364C106.742 111.939 109.455 109.97 111.455 107.455C113.455 104.909 114.455 101.939 114.455 98.5455C114.455 95.4545 113.591 92.9394 111.864 91C110.136 89.0606 107.864 87.4848 105.045 86.2727C102.227 85.0606 99.1818 84 95.9091 83.0909L84.4545 79.8182C77.1818 77.7273 71.4242 74.7424 67.1818 70.8636C62.9394 66.9848 60.8182 61.9091 60.8182 55.6364C60.8182 50.4242 62.2273 45.8788 65.0455 42C67.8939 38.0909 71.7121 35.0606 76.5 32.9091C81.3182 30.7273 86.697 29.6364 92.6364 29.6364C98.6364 29.6364 103.97 30.7121 108.636 32.8636C113.303 34.9848 117 37.8939 119.727 41.5909C122.485 45.2879 123.939 49.4848 124.091 54.1818H113.182Z" fill="white"/>
</g>
</g>
<defs>
<filter id="filter0_d_6_50" x="54.2727" y="29.6364" width="75.0909" height="104" filterUnits="userSpaceOnUse" color-interpolation-filters="sRGB">
<feFlood flood-opacity="0" result="BackgroundImageFix"/>
<feColorMatrix in="SourceAlpha" type="matrix" values="0 0 0 0 0 0 0 0 0 0 0 0 0 0 0 0 0 0 127 0" result="hardAlpha"/>
<feOffset dy="4"/>
<feGaussianBlur stdDeviation="2"/>
<feComposite in2="hardAlpha" operator="out"/>
<feColorMatrix type="matrix" values="0 0 0 0 0 0 0 0 0 0 0 0 0 0 0 0 0 0 0.25 0"/>
<feBlend mode="normal" in2="BackgroundImageFix" result="effect1_dropShadow_6_50"/>
<feBlend mode="normal" in="SourceGraphic" in2="effect1_dropShadow_6_50" result="shape"/>
</filter>
<clipPath id="clip0_6_50">
<rect width="150" height="150" fill="white"/>
</clipPath>
</defs>
</svg>
