<svg width="150" height="155" viewBox="0 0 150 155" fill="none" xmlns="http://www.w3.org/2000/svg">
<rect y="3" width="150" height="150" rx="12" fill="#639A00"/>
<path d="M30.2727 124V30.9091H62.8182C69.303 30.9091 74.6515 32.0303 78.8636 34.2727C83.0758 36.4848 86.2121 39.4697 88.2727 43.2273C90.3333 46.9545 91.3636 51.0909 91.3636 55.6364C91.3636 59.6364 90.6515 62.9394 89.2273 65.5455C87.8333 68.1515 85.9849 70.2121 83.6818 71.7273C81.4091 73.2424 78.9394 74.3636 76.2727 75.0909V76C79.1212 76.1818 81.9849 77.1818 84.8636 79C87.7424 80.8182 90.1515 83.4242 92.0909 86.8182C94.0303 90.2121 95 94.3636 95 99.2727C95 103.939 93.9394 108.136 91.8182 111.864C89.697 115.591 86.3485 118.545 81.7727 120.727C77.197 122.909 71.2424 124 63.9091 124H30.2727ZM41.5455 114H63.9091C71.2727 114 76.5 112.576 79.5909 109.727C82.7121 106.848 84.2727 103.364 84.2727 99.2727C84.2727 96.1212 83.4697 93.2121 81.8636 90.5455C80.2576 87.8485 77.9697 85.697 75 84.0909C72.0303 82.4545 68.5152 81.6364 64.4545 81.6364H41.5455V114ZM41.5455 71.8182H62.4545C65.8485 71.8182 68.9091 71.1515 71.6364 69.8182C74.3939 68.4848 76.5758 66.6061 78.1818 64.1818C79.8182 61.7576 80.6364 58.9091 80.6364 55.6364C80.6364 51.5455 79.2121 48.0758 76.3636 45.2273C73.5152 42.3485 69 40.9091 62.8182 40.9091H41.5455V71.8182Z" fill="black"/>
<line x1="46.5" y1="41" x2="46.5" y2="114" stroke="black"/>
<line x1="41.5" y1="41" x2="41.5" y2="114" stroke="black"/>
<line x1="51.5" y1="41" x2="51.5" y2="114" stroke="black"/>
<line x1="56.5" y1="41" x2="56.5" y2="114" stroke="black"/>
<line x1="61.5" y1="41" x2="61.5" y2="114" stroke="black"/>
<line x1="66.5" y1="41" x2="66.5" y2="114" stroke="black"/>
<line x1="71.5" y1="41" x2="71.5" y2="114" stroke="black"/>
<line x1="76.5" y1="41" x2="76.5" y2="114" stroke="black"/>
<line x1="81.5" y1="79" x2="81.5" y2="114" stroke="black"/>
<line x1="38" y1="43.5" x2="85" y2="43.5" stroke="black"/>
<line x1="37" y1="47.5" x2="81" y2="47.5" stroke="black"/>
<line x1="37" y1="51.5" x2="83" y2="51.5" stroke="black"/>
<line x1="37" y1="55.5" x2="82" y2="55.5" stroke="black"/>
<line x1="37" y1="59.5" x2="83" y2="59.5" stroke="black"/>
<line x1="37" y1="63.5" x2="83" y2="63.5" stroke="black"/>
<line x1="37" y1="67.5" x2="81" y2="67.5" stroke="black"/>
<line x1="37" y1="71.5" x2="79" y2="71.5" stroke="black"/>
<line x1="38" y1="85.5" x2="84" y2="85.5" stroke="black"/>
<line x1="38" y1="89.5" x2="83" y2="89.5" stroke="black"/>
<line x1="38" y1="93.5" x2="86" y2="93.5" stroke="black"/>
<line x1="38" y1="97.5" x2="87" y2="97.5" stroke="black"/>
<line x1="38" y1="101.5" x2="86" y2="101.5" stroke="black"/>
<line x1="38" y1="105.5" x2="86" y2="105.5" stroke="black"/>
<line x1="38" y1="109.5" x2="85" y2="109.5" stroke="black"/>
<g filter="url(#filter0_d_3_61)">
<path d="M110.182 54.1818C109.636 49.5758 107.424 46 103.545 43.4545C99.6667 40.9091 94.9091 39.6364 89.2727 39.6364C85.1515 39.6364 81.5455 40.303 78.4545 41.6364C75.3939 42.9697 73 44.803 71.2727 47.1364C69.5758 49.4697 68.7273 52.1212 68.7273 55.0909C68.7273 57.5758 69.3182 59.7121 70.5 61.5C71.7121 63.2576 73.2576 64.7273 75.1364 65.9091C77.0152 67.0606 78.9848 68.0151 81.0455 68.7727C83.1061 69.5 85 70.0909 86.7273 70.5455L96.1818 73.0909C98.6061 73.7273 101.303 74.6061 104.273 75.7273C107.273 76.8485 110.136 78.3788 112.864 80.3182C115.621 82.2273 117.894 84.6818 119.682 87.6818C121.47 90.6818 122.364 94.3636 122.364 98.7273C122.364 103.758 121.045 108.303 118.409 112.364C115.803 116.424 111.985 119.652 106.955 122.045C101.955 124.439 95.8788 125.636 88.7273 125.636C82.0606 125.636 76.2879 124.561 71.4091 122.409C66.5606 120.258 62.7424 117.258 59.9545 113.409C57.197 109.561 55.6364 105.091 55.2727 100H66.9091C67.2121 103.515 68.3939 106.424 70.4545 108.727C72.5455 111 75.1818 112.697 78.3636 113.818C81.5758 114.909 85.0303 115.455 88.7273 115.455C93.0303 115.455 96.8939 114.758 100.318 113.364C103.742 111.939 106.455 109.97 108.455 107.455C110.455 104.909 111.455 101.939 111.455 98.5455C111.455 95.4545 110.591 92.9394 108.864 91C107.136 89.0606 104.864 87.4848 102.045 86.2727C99.2273 85.0606 96.1818 84 92.9091 83.0909L81.4545 79.8182C74.1818 77.7273 68.4242 74.7424 64.1818 70.8636C59.9394 66.9848 57.8182 61.9091 57.8182 55.6364C57.8182 50.4242 59.2273 45.8788 62.0455 42C64.8939 38.0909 68.7121 35.0606 73.5 32.9091C78.3182 30.7273 83.697 29.6364 89.6364 29.6364C95.6364 29.6364 100.97 30.7121 105.636 32.8636C110.303 34.9848 114 37.8939 116.727 41.5909C119.485 45.2879 120.939 49.4848 121.091 54.1818H110.182Z" fill="white"/>
</g>
<defs>
<filter id="filter0_d_3_61" x="51.2727" y="29.6364" width="75.0909" height="104" filterUnits="userSpaceOnUse" color-interpolation-filters="sRGB">
<feFlood flood-opacity="0" result="BackgroundImageFix"/>
<feColorMatrix in="SourceAlpha" type="matrix" values="0 0 0 0 0 0 0 0 0 0 0 0 0 0 0 0 0 0 127 0" result="hardAlpha"/>
<feOffset dy="4"/>
<feGaussianBlur stdDeviation="2"/>
<feComposite in2="hardAlpha" operator="out"/>
<feColorMatrix type="matrix" values="0 0 0 0 0 0 0 0 0 0 0 0 0 0 0 0 0 0 0.25 0"/>
<feBlend mode="normal" in2="BackgroundImageFix" result="effect1_dropShadow_3_61"/>
<feBlend mode="normal" in="SourceGraphic" in2="effect1_dropShadow_3_61" result="shape"/>
</filter>
</defs>
</svg>
